<mxfile host="app.diagrams.net" modified="2024-04-21T04:07:57.055Z" agent="Mozilla/5.0 (Windows NT 10.0; Win64; x64) AppleWebKit/537.36 (KHTML, like Gecko) Chrome/123.0.0.0 Safari/537.36 Edg/123.0.0.0" version="24.2.7" etag="F4ap6u7VBSo5jbdX6S08" type="github">
  <diagram name="PÃ¡gina-1" id="P75S6INsRdGQsIeCWpIv">
    <mxGraphModel>
      <root>
        <mxCell id="0" />
        <mxCell id="1" parent="0" />
      </root>
    </mxGraphModel>
  </diagram>
</mxfile>
